HIERARCHY
ROOT joint_Root
{
	OFFSET 0.0 0.0 0.0
	CHANNELS 6 Xposition Yposition Zposition Zrotation Xrotation Yrotation 
	JOINT Hips
	{
		OFFSET -0.726466 93.3139 -2.00062
		CHANNELS 6 Xposition Yposition Zposition Zrotation Xrotation Yrotation 
		JOINT Spine
		{
			OFFSET 15.7357 0.0 0.0
			CHANNELS 6 Xposition Yposition Zposition Zrotation Xrotation Yrotation 
			JOINT Chest
			{
				OFFSET 8.98455 -0.406207 0.0
				CHANNELS 6 Xposition Yposition Zposition Zrotation Xrotation Yrotation 
				JOINT Neck
				{
					OFFSET 16.3773 0.0 0.0
					CHANNELS 6 Xposition Yposition Zposition Zrotation Xrotation Yrotation 
					JOINT Head
					{
						OFFSET 6.45672 0.0 0.0
						CHANNELS 6 Xposition Yposition Zposition Zrotation Xrotation Yrotation 
						End Site
						{
							OFFSET 0.0 0.0 0.0
						}
					}
				}
				JOINT Shoulder_L
				{
					OFFSET 12.9942 -0.242716 4.98039
					CHANNELS 6 Xposition Yposition Zposition Zrotation Xrotation Yrotation 
					JOINT UpperArm_L
					{
						OFFSET 5.34809 0.0 0.0
						CHANNELS 6 Xposition Yposition Zposition Zrotation Xrotation Yrotation 
						JOINT LowerArm_L
						{
							OFFSET 24.3286 1.87007e-05 0.0
							CHANNELS 6 Xposition Yposition Zposition Zrotation Xrotation Yrotation 
							JOINT Hand_L
							{
								OFFSET 22.2916 0.0 0.0
								CHANNELS 6 Xposition Yposition Zposition Zrotation Xrotation Yrotation 
								End Site
								{
									OFFSET 0.0 0.0 0.0
								}
							}
						}
					}
				}
				JOINT Shoulder_R
				{
					OFFSET 12.9945 -0.242716 -4.98039
					CHANNELS 6 Xposition Yposition Zposition Zrotation Xrotation Yrotation 
					JOINT UpperArm_R
					{
						OFFSET -5.34813 0.0 0.0
						CHANNELS 6 Xposition Yposition Zposition Zrotation Xrotation Yrotation 
						JOINT LowerArm_R
						{
							OFFSET -24.3289 0.000322201 0.0
							CHANNELS 6 Xposition Yposition Zposition Zrotation Xrotation Yrotation 
							JOINT Hand_R
							{
								OFFSET -22.2915 -0.000108084 0.0
								CHANNELS 6 Xposition Yposition Zposition Zrotation Xrotation Yrotation 
								End Site
								{
									OFFSET 0.0 0.0 0.0
								}
							}
						}
					}
				}
			}
		}
		JOINT UpperLeg_L
		{
			OFFSET -2.19248 -6.46944 0.0
			CHANNELS 6 Xposition Yposition Zposition Zrotation Xrotation Yrotation 
			JOINT LowerLeg_L
			{
				OFFSET 39.0811 0.0 -1.23785e-05
				CHANNELS 6 Xposition Yposition Zposition Zrotation Xrotation Yrotation 
				JOINT Foot_L
				{
					OFFSET 40.9854 0.0 -1.26872e-05
					CHANNELS 6 Xposition Yposition Zposition Zrotation Xrotation Yrotation 
					JOINT Toes_L
					{
						OFFSET 11.7543 0.0 0.0
						CHANNELS 6 Xposition Yposition Zposition Zrotation Xrotation Yrotation 
						End Site
						{
							OFFSET 0.0 0.0 0.0
						}
					}
				}
			}
		}
		JOINT UpperLeg_R
		{
			OFFSET -2.19251 6.46944 0.0
			CHANNELS 6 Xposition Yposition Zposition Zrotation Xrotation Yrotation 
			JOINT LowerLeg_R
			{
				OFFSET -39.0811 -0.00228153 -0.0401928
				CHANNELS 6 Xposition Yposition Zposition Zrotation Xrotation Yrotation 
				JOINT Foot_R
				{
					OFFSET -40.9854 0.0 0.0
					CHANNELS 6 Xposition Yposition Zposition Zrotation Xrotation Yrotation 
					JOINT Toes_R
					{
						OFFSET -11.7543 0.0 0.0
						CHANNELS 6 Xposition Yposition Zposition Zrotation Xrotation Yrotation 
						End Site
						{
							OFFSET 0.0 0.0 0.0
						}
					}
				}
			}
		}
	}
}
MOTION
Frames:	4
Frame Time:	0.0333333
0.000000 0.000000 0.000000 0.000000 0.000000 -0.000000 122.439000 88.235900 149.711000 94.566800 -60.049600 4.736250 15.735700 0.000005 -0.000001 104.039000 84.314200 -104.247000 8.984550 -0.406207 -0.000000 3.274360 2.763610 -0.495924 16.377300 -0.000001 -0.000001 1.585380 -10.203000 1.768020 6.456720 -0.000001 -0.000000 3.356060 -17.956600 2.732270 12.994200 -0.242716 4.980390 -89.333000 -1.746250 -69.091600 5.348090 -0.000007 -0.000001 -77.940600 21.124200 3.980970 24.328600 0.000019 0.000005 2.240660 12.752900 -10.051500 22.291600 -0.000001 0.000005 3.255720 5.308030 -0.149423 12.994500 -0.242716 -4.980390 89.053000 3.347220 -74.192300 -5.348130 -0.000001 -0.000004 -57.366400 37.101600 -37.115500 -24.328900 0.000322 -0.000009 2.867440 3.118900 -42.643600 -22.291500 -0.000108 -0.000004 12.217900 5.466590 -5.243610 -2.192480 -6.469440 -0.000000 -179.190000 -9.374800 -28.641700 39.081100 -0.000007 -0.000012 0.019617 -0.056650 19.100500 40.985400 -0.000006 -0.000013 -3.423780 4.225540 -56.619400 11.754300 -0.000000 0.000003 -0.007639 -0.085066 -20.040400 -2.192510 6.469440 -0.000001 -179.250000 5.479320 -169.329000 -39.081100 -0.002282 -0.040193 0.047339 -0.086294 27.032800 -40.985400 0.000008 0.000006 22.061700 15.828400 -74.146100 -11.754300 -0.000006 -0.000006 -0.057746 -0.324377 -29.961000
0.000000 0.000000 0.000000 0.000000 0.000000 -0.000000 119.262000 87.971900 153.098000 97.872400 -62.078000 8.005070 15.735700 0.000005 -0.000001 103.852000 84.240400 -104.741000 8.984550 -0.406207 -0.000000 3.443860 2.788090 -1.860490 16.377300 -0.000001 -0.000001 1.892390 -9.891050 2.062300 6.456720 -0.000001 -0.000000 3.368920 -17.779500 3.011010 12.994200 -0.242716 4.980390 -89.603400 -1.032900 -68.990900 5.348090 -0.000007 -0.000001 -74.989500 21.019300 0.777834 24.328600 0.000019 0.000005 2.392830 12.049500 -11.319700 22.291600 -0.000001 0.000005 5.087000 5.333660 -0.887368 12.994500 -0.242716 -4.980390 88.765000 4.458320 -74.498200 -5.348130 -0.000001 -0.000004 -58.822100 36.319300 -33.574600 -24.328900 0.000322 -0.000009 2.616780 3.107640 -40.143800 -22.291500 -0.000108 -0.000004 12.332500 5.463140 -5.115950 -2.192480 -6.469440 -0.000000 -179.291000 -4.890540 -29.055700 39.081100 -0.000007 -0.000012 -0.040807 0.091385 24.062900 40.985400 -0.000006 -0.000013 -3.899950 2.859100 -48.811900 11.754300 -0.000000 0.000003 -0.011397 -0.113806 -21.215400 -2.192510 6.469440 -0.000001 177.490000 4.833930 -168.596000 -39.081100 -0.002282 -0.040193 0.047185 -0.073468 30.851200 -40.985400 0.000008 0.000006 22.419000 17.669600 -71.913400 -11.754300 -0.000006 -0.000006 -0.109159 -0.466734 -36.100100
0.000000 0.000000 0.000000 0.000000 0.000000 -0.000000 115.646000 87.871800 156.546000 100.414000 -64.357400 12.056200 15.735700 0.000005 -0.000001 103.448000 83.793700 -104.848000 8.984550 -0.406207 -0.000000 4.348200 2.923740 -2.908940 16.377300 -0.000001 -0.000001 2.187690 -9.517570 2.219670 6.456720 -0.000001 -0.000000 3.742380 -17.655800 3.689880 12.994200 -0.242716 4.980390 -89.775900 -0.577559 -68.793800 5.348090 -0.000007 -0.000001 -72.082400 21.014500 -2.535170 24.328600 0.000019 0.000005 2.355530 10.314700 -12.940700 22.291600 -0.000001 0.000005 6.625000 5.364770 -1.821740 12.994500 -0.242716 -4.980390 88.512700 5.530260 -74.921400 -5.348130 -0.000001 -0.000004 -60.959900 35.408100 -29.243300 -24.328900 0.000322 -0.000009 2.679000 3.643870 -36.385500 -22.291500 -0.000108 -0.000004 12.246500 5.457230 -4.898680 -2.192480 -6.469440 -0.000000 -179.558000 -2.924550 -27.436200 39.081100 -0.000007 -0.000012 -0.087898 0.150452 30.294800 40.985400 -0.000006 -0.000013 -3.951420 -1.385740 -50.359100 11.754300 -0.000000 0.000003 -0.006414 -0.074562 -19.611700 -2.192510 6.469440 -0.000001 175.322000 3.226300 -168.754000 -39.081100 -0.002282 -0.040193 0.047116 -0.057107 37.507200 -40.985400 0.000008 0.000006 21.140900 19.269600 -64.717200 -11.754300 -0.000006 -0.000006 -0.204094 -0.651861 -44.542600
0.000000 0.000000 0.000000 0.000000 0.000000 -0.000000 112.189000 87.881300 159.686000 101.591000 -66.308400 14.891000 15.735700 0.000005 -0.000001 102.263000 83.340700 -103.852000 8.984550 -0.406207 -0.000000 5.295510 2.856880 -3.307790 16.377300 -0.000001 -0.000001 2.205460 -9.217500 1.893030 6.456720 -0.000001 -0.000000 4.008130 -17.254700 4.200340 12.994200 -0.242716 4.980390 -89.705900 -0.764477 -68.954900 5.348090 -0.000007 -0.000001 -69.793900 21.961600 -5.916830 24.328600 0.000019 0.000005 2.040070 7.525170 -15.224000 22.291600 -0.000001 0.000005 7.783960 5.388920 -2.578640 12.994500 -0.242716 -4.980390 88.535500 5.476900 -75.004900 -5.348130 -0.000001 -0.000004 -64.392100 34.079400 -25.164300 -24.328900 0.000322 -0.000009 2.996680 5.010480 -30.959800 -22.291500 -0.000108 -0.000004 12.309100 5.444160 -4.431340 -2.192480 -6.469440 -0.000000 -179.964000 -3.917610 -25.090900 39.081100 -0.000007 -0.000012 -0.105501 0.145520 35.942300 40.985400 -0.000006 -0.000013 -3.656800 -1.131140 -56.675100 11.754300 -0.000000 0.000003 -0.001949 -0.028083 -17.718700 -2.192510 6.469440 -0.000001 173.863000 2.241910 -172.513000 -39.081100 -0.002282 -0.040193 0.039590 -0.032870 47.866300 -40.985400 0.000008 0.000006 15.261900 21.097400 -53.108200 -11.754300 -0.000006 -0.000006 -0.194872 -0.636517 -43.816800
